<svg width="500" height="500" viewBox="0 0 500 500" fill="none" xmlns="http://www.w3.org/2000/svg">
<circle cx="249.387" cy="250.127" r="246.127" fill="black"/>
<ellipse cx="248.572" cy="250.127" rx="214.342" ry="190.708" fill="white"/>
<path d="M200.831 9.51641C103.907 28.7069 25.2016 103.04 5.03943 194.62C-2.24811 226.928 -1.51935 272.111 6.49694 304.662C14.7561 338.184 33.9467 377.294 55.3234 404.015C93.2186 451.384 154.92 486.364 211.277 492.923L226.095 494.624V250.005C226.095 18.7473 225.852 5.62972 221.965 5.87264C219.536 5.87264 210.062 7.57307 200.831 9.51641ZM177.511 136.805V199.964H158.078H138.644V173.243C138.644 158.425 137.673 146.522 136.701 146.522C132.086 146.522 107.308 175.429 100.992 187.818C92.9757 203.851 86.9028 223.527 89.089 226.928C90.0607 228.628 97.8341 229.114 109.251 228.628L127.713 227.9L128.442 250.248L129.17 272.839H108.28H87.6315L89.089 279.398C93.7045 300.046 121.397 344.014 133.786 350.573C138.401 353.002 138.644 352.517 138.644 329.925V306.848H157.835H177.025L177.997 365.634C178.726 398.185 178.726 425.392 178.24 426.364C177.025 429.036 151.762 416.89 133.057 404.987C76.7002 368.549 43.9063 310.006 43.9063 246.361C43.9063 206.037 54.1088 176.887 80.1011 142.393C98.077 118.344 118.725 102.068 152.005 85.7926C165.365 78.9909 176.539 73.6467 176.782 73.6467C177.268 73.6467 177.511 102.068 177.511 136.805Z" fill="black"/>
<path d="M272.247 249.762V493.895H278.32C291.195 493.895 322.774 485.878 342.693 477.619C407.067 451.141 454.921 404.987 479.456 345.472C517.594 253.892 502.047 158.911 437.674 87.7358C407.552 54.4561 353.139 23.1197 306.256 11.7025C292.166 8.30166 278.806 5.62956 276.62 5.62956C272.49 5.62956 272.247 18.99 272.247 249.762ZM347.066 86.7641C373.058 99.8817 403.666 122.23 417.512 138.263C434.516 158.425 442.775 177.858 443.99 202.15C444.962 219.397 444.233 225.47 440.103 236.644C430.387 261.908 410.467 278.912 378.645 288.872L364.556 293.244V348.63V404.015L345.851 414.946C335.406 421.019 325.689 425.878 323.989 425.878C321.559 425.878 320.831 390.897 320.831 250.977C320.831 133.647 321.559 76.0758 323.26 76.0758C324.717 76.0758 335.406 80.9341 347.066 86.7641Z" fill="black"/>
<path d="M364.559 197.778V246.605L371.36 244.905C375.004 244.176 381.563 240.532 385.935 237.374C409.255 219.398 405.855 184.661 378.162 159.155C372.089 153.567 366.502 148.952 365.773 148.952C365.044 148.952 364.559 170.815 364.559 197.778Z" fill="black"/>
</svg>
